<mxfile host="app.diagrams.net" agent="Mozilla/5.0 (Macintosh; Intel Mac OS X 10_15_7) AppleWebKit/537.36 (KHTML, like Gecko) Chrome/136.0.0.0 Safari/537.36" version="27.0.6">
  <diagram name="第 1 页" id="4pGaG0tww45vicy_Ifjd">
    <mxGraphModel dx="1810" dy="1039" grid="1" gridSize="10" guides="1" tooltips="1" connect="1" arrows="1" fold="1" page="1" pageScale="1" pageWidth="827" pageHeight="1169" math="0" shadow="0">
      <root>
        <mxCell id="0" />
        <mxCell id="1" parent="0" />
        <mxCell id="roWgjetLoro6pVtUbFcS-1" value="" style="rounded=1;whiteSpace=wrap;html=1;fillColor=#1ba1e2;strokeColor=#006EAF;fontColor=#ffffff;" vertex="1" parent="1">
          <mxGeometry x="30" y="170" width="600" height="390" as="geometry" />
        </mxCell>
        <mxCell id="roWgjetLoro6pVtUbFcS-2" value="Botim Min Programs" style="rounded=1;whiteSpace=wrap;html=1;fontSize=16;fillColor=#f5f5f5;strokeColor=#666666;fontColor=#333333;fontStyle=1" vertex="1" parent="1">
          <mxGeometry x="80" y="250" width="200" height="50" as="geometry" />
        </mxCell>
        <mxCell id="roWgjetLoro6pVtUbFcS-3" value="Botim Pay &amp;amp; Merchant Platform" style="rounded=1;whiteSpace=wrap;html=1;fontSize=16;fillColor=#f5f5f5;fontColor=#333333;strokeColor=#666666;fontStyle=1" vertex="1" parent="1">
          <mxGeometry x="110" y="340" width="120" height="80" as="geometry" />
        </mxCell>
        <mxCell id="roWgjetLoro6pVtUbFcS-4" value="AI Recommendatios" style="rounded=1;whiteSpace=wrap;html=1;fontSize=16;fillColor=#f5f5f5;fontColor=#333333;strokeColor=#666666;fontStyle=1" vertex="1" parent="1">
          <mxGeometry x="80" y="450" width="200" height="50" as="geometry" />
        </mxCell>
        <mxCell id="roWgjetLoro6pVtUbFcS-5" value="Botim&lt;br&gt;SUPER APP" style="rounded=1;whiteSpace=wrap;html=1;fontSize=18;fillColor=#d5e8d4;strokeColor=#82b366;fontStyle=1" vertex="1" parent="1">
          <mxGeometry x="250" y="340" width="150" height="80" as="geometry" />
        </mxCell>
        <mxCell id="roWgjetLoro6pVtUbFcS-6" value="Botim VOIP" style="rounded=1;whiteSpace=wrap;html=1;fontSize=16;fillColor=#f5f5f5;fontColor=#333333;strokeColor=#666666;fontStyle=1" vertex="1" parent="1">
          <mxGeometry x="420" y="345" width="120" height="75" as="geometry" />
        </mxCell>
        <mxCell id="roWgjetLoro6pVtUbFcS-7" value="&lt;font style=&quot;font-size: 16px;&quot;&gt;Botim Ads Platform&lt;/font&gt;" style="rounded=1;whiteSpace=wrap;html=1;fillColor=#f5f5f5;fontColor=#333333;strokeColor=#666666;fontStyle=1" vertex="1" parent="1">
          <mxGeometry x="370" y="250" width="200" height="50" as="geometry" />
        </mxCell>
        <mxCell id="roWgjetLoro6pVtUbFcS-8" value="Botim Open API" style="rounded=1;whiteSpace=wrap;html=1;fontSize=16;fillColor=#f5f5f5;fontColor=#333333;strokeColor=#666666;fontStyle=1" vertex="1" parent="1">
          <mxGeometry x="370" y="450" width="200" height="50" as="geometry" />
        </mxCell>
        <mxCell id="roWgjetLoro6pVtUbFcS-9" value="&lt;font&gt;CAPABILITIES&lt;/font&gt;" style="text;html=1;align=center;verticalAlign=middle;whiteSpace=wrap;rounded=0;fontSize=26;fontStyle=1;fontFamily=Lucida Console;" vertex="1" parent="1">
          <mxGeometry x="220" y="200" width="220" height="30" as="geometry" />
        </mxCell>
      </root>
    </mxGraphModel>
  </diagram>
</mxfile>
